HIERARCHY
ROOT Hips
{
 OFFSET 0.000000 0.000000 0.000000
 CHANNELS 6 Xposition Yposition Zposition Yrotation Xrotation Zrotation
 JOINT Chest
 {
  OFFSET 0.000000 10.354800 0.006500
  CHANNELS 3 Yrotation Xrotation Zrotation
  JOINT Chest2
  {
   OFFSET 0.000000 10.435800 -0.013200
   CHANNELS 3 Yrotation Xrotation Zrotation
   JOINT Chest3
   {
    OFFSET 0.000000 10.393700 0.000000
    CHANNELS 3 Yrotation Xrotation Zrotation
    JOINT Chest4
    {
     OFFSET 0.000000 10.383100 0.000000
     CHANNELS 3 Yrotation Xrotation Zrotation
     JOINT Neck
     {
      OFFSET 0.000000 15.694000 0.000000
      CHANNELS 3 Yrotation Xrotation Zrotation
      JOINT Head
      {
       OFFSET 0.000000 9.711000 -0.028000
       CHANNELS 3 Yrotation Xrotation Zrotation
       End Site
       {
        OFFSET 0.000000 18.578700 -0.014800
       }
      }
     }
     JOINT RightCollar
     {
      OFFSET -3.157200 10.367500 0.000000
      CHANNELS 3 Yrotation Xrotation Zrotation
      JOINT RightShoulder
      {
       OFFSET -14.482500 0.000000 0.000000
       CHANNELS 3 Yrotation Xrotation Zrotation
       JOINT RightElbow
       {
        OFFSET 0.000000 -31.707800 0.000000
        CHANNELS 3 Yrotation Xrotation Zrotation
        JOINT RightWrist
        {
         OFFSET 0.000000 -25.659300 0.000000
         CHANNELS 3 Yrotation Xrotation Zrotation
         End Site
         {
          OFFSET 0.000000 -18.994300 0.000000
         }
        }
       }
      }
     }
     JOINT LeftCollar
     {
      OFFSET 3.157200 10.367500 0.000000
      CHANNELS 3 Yrotation Xrotation Zrotation
      JOINT LeftShoulder
      {
       OFFSET 14.482500 0.000000 0.000000
       CHANNELS 3 Yrotation Xrotation Zrotation
       JOINT LeftElbow
       {
        OFFSET 0.000000 -31.707800 0.000000
        CHANNELS 3 Yrotation Xrotation Zrotation
        JOINT LeftWrist
        {
         OFFSET 0.000000 -25.659300 0.000000
         CHANNELS 3 Yrotation Xrotation Zrotation
         End Site
         {
          OFFSET 0.000000 -18.994300 0.000000
         }
        }
       }
      }
     }
    }
   }
  }
 }
 JOINT RightHip
 {
  OFFSET -8.365600 -0.032100 -0.003200
  CHANNELS 3 Yrotation Xrotation Zrotation
  JOINT RightKnee
  {
   OFFSET 0.000000 -43.980000 0.003100
   CHANNELS 3 Yrotation Xrotation Zrotation
   JOINT RightAnkle
   {
    OFFSET 0.000000 -42.882800 0.005200
    CHANNELS 3 Yrotation Xrotation Zrotation
    JOINT RightToe
    {
     OFFSET 0.000000 -4.915500 10.826300
     CHANNELS 3 Yrotation Xrotation Zrotation
     End Site
     {
      OFFSET 0.000000 -1.517500 6.175900
     }
    }
   }
  }
 }
 JOINT LeftHip
 {
  OFFSET 8.365600 -0.032100 -0.003200
  CHANNELS 3 Yrotation Xrotation Zrotation
  JOINT LeftKnee
  {
   OFFSET 0.000000 -43.980000 0.003100
   CHANNELS 3 Yrotation Xrotation Zrotation
   JOINT LeftAnkle
   {
    OFFSET 0.000000 -42.882800 0.005200
    CHANNELS 3 Yrotation Xrotation Zrotation
    JOINT LeftToe
    {
     OFFSET 0.000000 -4.915500 10.826300
     CHANNELS 3 Yrotation Xrotation Zrotation
     End Site
     {
      OFFSET 0.000000 -1.517500 6.175900
     }
    }
   }
  }
 }
}
MOTION
Frames: 8
Frame Time: 0.008333
0.000000 91.618600 0.000000 0.000000 -5.767877 0.000000 0.000000 11.653817 0.000000 0.000000 -5.885947 0.000000 0.000000 -0.000000 0.000000 0.000000 -0.000000 0.000000 0.000000 12.528835 0.000000 0.000000 0.711642 0.000000 0.000000 -0.000000 0.000000 0.000000 0.000000 -90.000000 0.000000 -2.309062 0.000000 0.000000 2.309062 0.000000 0.000000 -0.000000 0.000000 0.000000 -0.000000 90.000000 0.000000 -2.309062 0.000000 0.000000 2.309062 0.000000 0.000000 8.520406 0.000000 0.000000 1.905762 0.000000 -0.000000 -4.658285 0.000000 0.000000 -0.000000 0.000000 0.000000 8.520406 0.000000 0.000000 1.905762 0.000000 -0.000000 -4.658285 0.000000 0.000000 -0.000000 0.000000
96.837003 126.573544 125.814554 178.597443 -21.206956 -4.408459 -2.831613 13.624193 3.830030 -0.290348 1.205820 0.381144 -0.478415 2.019999 0.612978 -2.582424 12.218869 3.475574 0.347809 21.007419 -4.279700 1.351575 -3.255846 -4.663072 1.387766 6.235717 -5.811433 -1.254317 -3.112502 -1.687728 -104.115917 -61.168230 132.376132 -20.086099 -14.240280 -35.599730 -0.828805 7.384613 -0.151212 9.055467 -1.000782 -3.581627 86.558600 -53.730576 -133.563842 26.152096 -10.288354 46.075144 4.870876 -62.085790 5.727244 -79.888623 78.475600 -74.811899 4.779916 -5.777721 -14.954932 0.003009 -0.014824 0.001366 -19.321571 -60.382156 15.294332 68.629878 81.932179 62.652080 -7.177551 -5.803566 0.964565 0.006443 0.004163 0.002925
96.837786 126.573601 125.815554 178.600708 -21.210939 -4.434072 -2.826483 13.624268 3.847393 -0.287465 1.200713 0.372427 -0.475578 2.013569 0.605169 -2.580394 12.223481 3.482441 0.344874 21.007627 -4.268857 1.345164 -3.256604 -4.654171 1.418144 6.220750 -5.828431 -1.265728 -3.083499 -1.652414 -104.121472 -61.166422 132.365100 -20.097725 -14.224097 -35.581970 -0.831848 7.383320 -0.134364 9.051755 -1.010272 -3.579592 86.538340 -53.716453 -133.566270 26.155311 -10.327516 46.099350 4.831232 -62.080026 5.769143 -79.824186 78.448051 -74.760735 4.867873 -5.692592 -14.951105 0.011215 -0.016682 0.005091 -19.338749 -60.379988 15.323562 68.681342 81.936284 62.704740 -7.177169 -5.803557 0.972145 0.005770 0.003882 0.002620
96.837706 126.574135 125.815335 178.615038 -21.222374 -4.461932 -2.831855 13.632236 3.862746 -0.277690 1.185605 0.351082 -0.484115 2.028564 0.626839 -2.575770 12.216852 3.476900 0.342320 21.013441 -4.258168 1.337705 -3.265121 -4.650680 1.430195 6.218239 -5.830660 -1.260183 -3.075972 -1.640449 -104.087009 -61.165311 132.331343 -20.093227 -14.222924 -35.581419 -0.837478 7.381252 -0.124453 9.051272 -1.044839 -3.572625 86.492650 -53.686589 -133.550731 26.138437 -10.346142 46.153305 4.820204 -62.058282 5.777858 -79.746098 78.419328 -74.672450 4.842015 -5.609566 -14.943327 0.006300 -0.008981 0.002860 -19.332012 -60.377166 15.322266 68.732635 81.938144 62.769903 -7.199940 -5.797397 0.984568 0.001677 0.000955 0.000762
96.832182 126.573868 125.816032 178.622558 -21.227871 -4.459380 -2.823810 13.619001 3.832353 -0.289921 1.199091 0.372339 -0.481361 2.022819 0.620293 -2.576200 12.215172 3.477342 0.341500 21.019063 -4.247662 1.330463 -3.275463 -4.646436 1.438789 6.219398 -5.828740 -1.262422 -3.067110 -1.630568 -104.028333 -61.167681 132.304117 -20.084436 -14.235465 -35.594429 -0.843819 7.378766 -0.116383 9.060755 -1.053478 -3.560365 86.462345 -53.676000 -133.529377 26.138814 -10.364129 46.162798 4.844117 -62.047118 5.750723 -79.714118 78.403321 -74.631027 4.680294 -5.534278 -14.934211 -0.007059 0.002268 -0.003205 -19.298202 -60.381476 15.289078 68.747502 81.942615 62.786947 -7.216343 -5.793456 0.992267 0.002549 -0.000556 0.001157
96.829019 126.574048 125.816243 178.639833 -21.236462 -4.474413 -2.827295 13.619697 3.829389 -0.295511 1.203775 0.378673 -0.468086 2.009229 0.601174 -2.582523 12.223059 3.494415 0.333479 21.002035 -4.248340 1.332894 -3.257478 -4.634751 1.437392 6.226302 -5.821399 -1.262296 -3.064792 -1.627629 -104.005439 -61.168656 132.289019 -20.087390 -14.210844 -35.597287 -0.854385 7.375665 -0.109054 9.072060 -1.061667 -3.548648 86.432638 -53.666005 -133.509134 26.137070 -10.414007 46.174353 4.830243 -62.032893 5.758927 -79.695450 78.385830 -74.603372 4.556966 -5.467538 -14.927264 -0.016945 0.009949 -0.007695 -19.291742 -60.378772 15.280772 68.798125 81.944462 62.829090 -7.204230 -5.792516 1.009128 0.000642 -0.001475 0.000291
96.827726 126.574289 125.816892 178.654720 -21.242938 -4.499092 -2.825884 13.619552 3.838609 -0.285876 1.194661 0.365957 -0.482605 2.022113 0.620621 -2.581020 12.217450 3.492110 0.328350 20.997090 -4.244158 1.332373 -3.252083 -4.628028 1.448969 6.225221 -5.829442 -1.273804 -3.053649 -1.609741 -103.997674 -61.168521 132.280745 -20.086848 -14.210201 -35.598853 -0.864394 7.373690 -0.101562 9.082083 -1.070442 -3.537595 86.434842 -53.660128 -133.527232 26.135728 -10.456527 46.204918 4.795525 -62.021035 5.792617 -79.635627 78.375303 -74.539426 4.536848 -5.406437 -14.926558 -0.014967 0.010749 -0.006797 -19.317340 -60.371106 15.303335 68.831142 81.949114 62.856976 -7.190376 -5.792796 1.010826 -0.000237 0.000025 -0.000107
96.828363 126.574825 125.817305 178.684202 -21.249784 -4.539101 -2.838367 13.624447 3.861056 -0.288466 1.196185 0.368928 -0.482767 2.021720 0.620719 -2.582637 12.213199 3.487109 0.327211 20.989769 -4.237550 1.328851 -3.259180 -4.621556 1.461248 6.226093 -5.835767 -1.280355 -3.044185 -1.592407 -103.977338 -61.171751 132.259000 -20.089643 -14.214648 -35.598644 -0.868574 7.370207 -0.092633 9.091249 -1.077804 -3.523868 86.426775 -53.659146 -133.516974 26.113161 -10.529489 46.217276 4.723731 -62.008101 5.848663 -79.558319 78.395685 -74.465682 4.605823 -5.366787 -14.929604 -0.005327 0.005295 -0.002419 -19.372474 -60.359161 15.344807 68.856834 81.954409 62.878846 -7.182320 -5.794407 1.018644 -0.002920 0.002103 -0.001326
